<?xml version="1.0" encoding="UTF-8" standalone="no"?>
<!-- Created with Inkscape (http://www.inkscape.org/) -->

<svg
   xmlns:dc="http://purl.org/dc/elements/1.1/"
   xmlns:cc="http://creativecommons.org/ns#"
   xmlns:rdf="http://www.w3.org/1999/02/22-rdf-syntax-ns#"
   xmlns:svg="http://www.w3.org/2000/svg"
   xmlns="http://www.w3.org/2000/svg"
   xmlns:sodipodi="http://sodipodi.sourceforge.net/DTD/sodipodi-0.dtd"
   xmlns:inkscape="http://www.inkscape.org/namespaces/inkscape"
   width="327.60556"
   height="55.472412"
   viewBox="0 0 86.67897 14.677076"
   version="1.1"
   id="svg1956"
   inkscape:version="0.92.3 (2405546, 2018-03-11)"
   sodipodi:docname="logo-bottom.svg">
  <defs
     id="defs1950">
    <clipPath
       clipPathUnits="userSpaceOnUse"
       id="clipPath1567">
      <rect
         y="265.22787"
         x="46.744453"
         height="106.28405"
         width="525"
         id="rect1569"
         style="opacity:0.95;fill:#000000;fill-opacity:1;stroke:#ff0000;stroke-width:0.15999994;stroke-miterlimit:4;stroke-dasharray:none;stroke-dashoffset:23.92440987;stroke-opacity:1" />
    </clipPath>
  </defs>
  <sodipodi:namedview
     id="base"
     pagecolor="#ffffff"
     bordercolor="#666666"
     borderopacity="1.0"
     inkscape:pageopacity="0.0"
     inkscape:pageshadow="2"
     inkscape:zoom="0.7"
     inkscape:cx="-36.759614"
     inkscape:cy="178.16231"
     inkscape:document-units="mm"
     inkscape:current-layer="layer1"
     showgrid="false"
     fit-margin-top="0"
     fit-margin-left="0"
     fit-margin-right="0"
     fit-margin-bottom="0"
     units="px"
     inkscape:window-width="1366"
     inkscape:window-height="710"
     inkscape:window-x="0"
     inkscape:window-y="27"
     inkscape:window-maximized="1" />
  <metadata
     id="metadata1953">
    <rdf:RDF>
      <cc:Work
         rdf:about="">
        <dc:format>image/svg+xml</dc:format>
        <dc:type
           rdf:resource="http://purl.org/dc/dcmitype/StillImage" />
        <dc:title></dc:title>
      </cc:Work>
    </rdf:RDF>
  </metadata>
  <g
     inkscape:label="Layer 1"
     inkscape:groupmode="layer"
     id="layer1"
     transform="translate(-11.84504,-199.31404)">
    <g
       transform="matrix(0.28222223,0,0,0.28222223,-29.623077,124.46084)"
       style="display:inline"
       id="g1867"
       clip-path="url(#clipPath1567)">
      <g
         transform="matrix(1.9999992,0,0,1.9999992,-81.857639,-389.91904)"
         id="g5433"
         style="display:inline;fill:none;stroke:#000000;stroke-opacity:1">
        <g
           id="g5435"
           style="fill:none;stroke:#000000;stroke-opacity:1">
          <path
             id="path5437"
             style="fill:none;stroke:#000000;stroke-width:1px;stroke-linecap:butt;stroke-linejoin:miter;stroke-opacity:1"
             d="m 172.9613,341.2081 55.42866,-22.42071 m -27.81376,20.85147 28.65506,-19.27629 m 3.31182,2.84231 -6.84177,13.65957 m -66.91527,-18.12764 55.22506,22.4847 m -55.97537,-20.8643 28.31711,19.25743 m -31.65595,-16.38742 6.56043,13.53262 m 14.33729,-13.51685 -6.82269,13.62148 m 14.41455,-13.58587 6.53274,13.47549 m -3.22221,-16.39919 28.30689,19.25044 m -3.16943,-16.36123 6.52381,13.45706 m -14.08004,-13.49595 -6.8104,13.59688 m 3.57035,-16.48769 -28.7425,19.33512 m 6.51965,-41.2487 21.89232,12.82264 m -54.41138,-2.71753 -11.00946,-15.90115 m 109.37276,0.19361 -29.22009,18.19491 m -50.76764,-18.12369 -9.1331,15.35765 m 21.10629,-9.78389 1.52996,8.7321 m -28.39887,-15.00983 23.16737,18.14489 m 24.19542,-17.20739 -12.248,15.72032 m 17.248,-15.72032 3.73997,14.06832 m 14.30092,-14.06832 -7.97365,14.83256 m 14.93276,-14.83256 6.12972,14.58984 m 32.02999,-23.27308 -22.91921,24.84432 m -60.2405,-18.66108 h 3.25 l 3.25,-10 h 3.5 m 37,-12.5 h -10 l -0.667,-2 h -3.333 m 1,-2 h 3.667 l 0.666,2 h 9.667 m 5.333,-10 -1,-3 h -3.667 l -4,11 h -4.666 l -1,-3 m -23,-26 v 10 h -4.334 l -1.333,4 h -15.32224 l -1.0099,-3 -10.33486,-1e-5 -1.67081,5.00391 h -15.99609 l -1.9991,5.99609 h -27 m 85,-21.99999 V 247.103 l -8.99957,1.5e-4 -1.33443,3.99975 -18,2.5e-4 -1,-2.99684 -7.666,-0.003 -1.667,4.99902 -12.666,0.001 -1,3 m -32.77685,0.97272 c 0,1.08608 -0.88045,1.96653 -1.96653,1.96653 -1.08608,0 -1.96653,-0.88045 -1.96653,-1.96653 0,-1.08608 0.88045,-1.96653 1.96653,-1.96653 1.08608,0 1.96653,0.88045 1.96653,1.96653 z m 48.10985,10.0271 h 3.667 l 4.666,-14 19.73911,-0.0625 1.26089,-3.93754 13.667,-0.004 v -13.99609 m -13.98927,21.44934 1.03322,-3.44368 0.62205,-2.00553 18.334,-0.006 v -15.99544 m 6,0.001 v 14 h 28 l 2,6 m 13.667,26 -2.334,-7 h -8.666 l -0.667,-2 v -2 l 4,-12 v -3 l -3.333,-10 -20.66816,4e-4 -0.005,-9.99757 m 1.89627,-2.02993 c 0,1.08608 -0.88045,1.96653 -1.96653,1.96653 -1.08608,0 -1.96653,-0.88045 -1.96653,-1.96653 0,-1.08608 0.88045,-1.96653 1.96653,-1.96653 1.08608,0 1.96653,0.88045 1.96653,1.96653 z m -6,0 c 0,1.08608 -0.88045,1.96653 -1.96653,1.96653 -1.08608,0 -1.96653,-0.88045 -1.96653,-1.96653 0,-1.08608 0.88045,-1.96653 1.96653,-1.96653 1.08608,0 1.96653,0.88045 1.96653,1.96653 z m -6,0 c 0,1.08608 -0.88045,1.96653 -1.96653,1.96653 -1.08608,0 -1.96653,-0.88045 -1.96653,-1.96653 0,-1.08608 0.88045,-1.96653 1.96653,-1.96653 1.08608,0 1.96653,0.88045 1.96653,1.96653 z m -6,0 c 0,1.08608 -0.88045,1.96653 -1.96653,1.96653 -1.08608,0 -1.96653,-0.88045 -1.96653,-1.96653 0,-1.08608 0.88045,-1.96653 1.96653,-1.96653 1.08608,0 1.96653,0.88045 1.96653,1.96653 z m -6,0 c 0,1.08608 -0.88045,1.96653 -1.96653,1.96653 -1.08608,0 -1.96653,-0.88045 -1.96653,-1.96653 0,-1.08608 0.88045,-1.96653 1.96653,-1.96653 1.08608,0 1.96653,0.88045 1.96653,1.96653 z m -6,0 c 0,1.08608 -0.88045,1.96653 -1.96653,1.96653 -1.08608,0 -1.96653,-0.88045 -1.96653,-1.96653 0,-1.08608 0.88045,-1.96653 1.96653,-1.96653 1.08608,0 1.96653,0.88045 1.96653,1.96653 z m -6,0 c 0,1.08608 -0.88045,1.96653 -1.96653,1.96653 -1.08608,0 -1.96653,-0.88045 -1.96653,-1.96653 0,-1.08608 0.88045,-1.96653 1.96653,-1.96653 1.08608,0 1.96653,0.88045 1.96653,1.96653 z m -80.89011,60.0271 h 9 l 5,-15 h 5 v 3.99991 m -19.10985,10.97299 c 0,1.08608 -0.88045,1.96653 -1.96653,1.96653 -1.08608,0 -1.96653,-0.88045 -1.96653,-1.96653 0,-1.08608 0.88045,-1.96653 1.96653,-1.96653 1.08608,0 1.96653,0.88045 1.96653,1.96653 z m 75.10985,-31.9729 1,3 h 4.333 l 3.667,-10.99842 18.333,-0.002 0.67105,-1.99438 19.99618,-3.5e-4 0.003,4.9951 m 7.43589,11.20248 0.89388,2.79757 h 1.667 l 4,-12 v -3 l -2.667,-8 -25.33294,0.004 0.005,-12.00229 m 5.32794,32.99829 0.667,2 h 14.333 l 2,6 h 11.667 l 1.667,4.99312 m -29.667,0.007 1.667,-5 h 8.666 l 2.667,8 m -2.333,7 -2,-3 v -2.00391 l 1.33112,-3.99594 0.002,-0.99346 -0.99891,-3.00669 h -6.00126 l -0.99995,3 m -14.85352,-0.67773 -1.47948,-4.32227 h -8.667 v 5 m 0.666,-13 0.667,2 h 11.334 l 1.333,4 h 1.89597 l 0.33191,-0.82864 m 34.43912,7.82864 -1,-3 -11.667,1.5e-4 -2,-6.0021 -14,0.002 -1.333,4 h -8 l -1.337,-4 -17.997,-5e-5 -1.33332,-4.00085 m 45.00032,13.00085 -2.333,-6.99755 -11.334,-0.002 -1.333,3.9991 -10.667,0.002 -1.333,-4.00155 h -20 l -2.667,-8 -9.38261,0.0126 m -6.9335,1.9874 0.64911,2 h 6.667 l 0.667,-2 h 7.00021 l 2.66679,8 h 9.33451 l 0.002,4.32441 m -90.11336,6.64849 c 0,1.08608 -0.88045,1.96653 -1.96653,1.96653 -1.08608,0 -1.96653,-0.88045 -1.96653,-1.96653 0,-1.08608 0.88045,-1.96653 1.96653,-1.96653 1.08608,0 1.96653,0.88045 1.96653,1.96653 z m 0,-6 c 0,1.08608 -0.88045,1.96653 -1.96653,1.96653 -1.08608,0 -1.96653,-0.88045 -1.96653,-1.96653 0,-1.08608 0.88045,-1.96653 1.96653,-1.96653 1.08608,0 1.96653,0.88045 1.96653,1.96653 z m 0,-6 c 0,1.08608 -0.88045,1.96653 -1.96653,1.96653 -1.08608,0 -1.96653,-0.88045 -1.96653,-1.96653 0,-1.08608 0.88045,-1.96653 1.96653,-1.96653 1.08608,0 1.96653,0.88045 1.96653,1.96653 z m 0,-6 c 0,1.08608 -0.88045,1.96653 -1.96653,1.96653 -1.08608,0 -1.96653,-0.88045 -1.96653,-1.96653 0,-1.08608 0.88045,-1.96653 1.96653,-1.96653 1.08608,0 1.96653,0.88045 1.96653,1.96653 z m 30.10985,-1.9729 -1,3 h -5.25 -13.75 l -0.333,-1 -9.65765,-0.0102 m 42.99065,-0.9898 v 2 h -5.333 l -0.667,2 h -13.5 -13.5 l -1,3 -9.00123,-0.002 m 45.00123,-6.998 0.0156,2.01953 16.6514,-0.0195 0.666,2 h 9.167 l 0.75,-2 3.75,-6e-5 1.00037,3 -4e-4,2.01133 m -1.99521,-0.01 1.2e-4,-2.00172 -0.33788,-1 -1.334,7e-5 -0.666,1.99993 h -11.667 l -0.667,-1.9995 h -21.333 l -0.667,2 h -7.083 -19.917 l -2.333,6.9995 -8.99424,0.002 m 64.99424,-1.002 v -3.99437 l -5.333,-0.006 -0.66848,-2.00033 -18.66552,7e-4 -0.666,2 h -27 l -3.667,11 -9,-7e-4 m 63,-6.9993 v -2 h -4.667 l -0.666,-2 h -16 l -0.667,2 h -20 v 2.31074 m 17.12993,0.68926 h 3.87007 l 1,-3 h 3 l 1,3 m -47.10985,-18.0271 c 0,1.08608 -0.88045,1.96653 -1.96653,1.96653 -1.08608,0 -1.96653,-0.88045 -1.96653,-1.96653 0,-1.08608 0.88045,-1.96653 1.96653,-1.96653 1.08608,0 1.96653,0.88045 1.96653,1.96653 z m 0.10824,-0.0503 h 30.21238"
             inkscape:connector-curvature="0"
             sodipodi:nodetypes="cccccccccccccccccccccccccccccccccccccccccccccccccccccccccccccccccccccccccccccccccccccsssssccccccccccccccccccccccccccssssssssssssssssssssssssssssssssssscccccssssscccccccccccccccccccccccccccccccccccccccccccccccccccccccccccccccccccccccssssssssssssssssssssccccccccccccccccccccccccccccccccccccccccccccccccccccccccccssssscc" />
        </g>
      </g>
      <g
         id="g1220">
        <g
           id="g5541"
           style="font-style:normal;font-weight:normal;font-size:90px;line-height:100%;font-family:Sans;letter-spacing:0px;word-spacing:0px;display:inline;fill:#000000;fill-opacity:1;stroke:none"
           transform="matrix(1.9999992,0,0,1.9999992,-388.39312,-1056.1678)">
          <path
             inkscape:connector-curvature="0"
             id="path5543"
             style="font-style:normal;font-variant:normal;font-weight:normal;font-stretch:normal;font-size:25px;font-family:genotype;-inkscape-font-specification:genotype;text-align:center;text-anchor:middle;fill:#000000;fill-opacity:1;stroke:none"
             d="m 301.43872,590.80266 -2.7,8.575 q -0.175,0.55 -0.175,1 0,1.85 2.125,1.85 h 17.15 q 2.85,0 3.75,-2.85 l 5.2,-16.425 q 0.05,-0.15 0.05,-0.275 0,-0.45 -0.55,-0.45 h -4.275 q -0.725,0 -0.95,0.725 l -1.35,4.275 q -0.225,0.725 -0.925,0.725 h -13.575 q -2.875,0 -3.775,2.85 z m 4.3,0 q 0.225,-0.725 0.925,-0.725 h 11.425 q 0.55,0.05 0.55,0.475 0,0.1 -0.05,0.25 l -0.675,2.15 q -0.225,0.7 -0.95,0.7 h -11.425 q -0.525,0 -0.525,-0.45 0,-0.1 0.05,-0.25 z" />
          <path
             inkscape:connector-curvature="0"
             id="path5545"
             style="font-style:normal;font-variant:normal;font-weight:normal;font-stretch:normal;font-size:25px;font-family:genotype;-inkscape-font-specification:genotype;text-align:center;text-anchor:middle;fill:#000000;fill-opacity:1;stroke:none"
             d="m 350.58521,587.95266 h -17.15 q -0.725,0 -1.55,0.35 -1.625,0.7 -2.2,2.5 l -2.725,8.575 q -0.125,0.4 -0.125,0.95 0,1.9 2.1,1.9 h 11.425 q 0.375,0 0.775,-0.175 0.825,-0.35 1.1,-1.25 l 1.575,-5 q 0.225,-0.725 0.95,-0.725 h 5 q 0.375,0 0.775,-0.175 0.825,-0.35 1.1,-1.25 l 0.9,-2.85 q 0.125,-0.4 0.125,-0.95 0,-1.9 -2.075,-1.9 z m -4.45,5 q -0.225,0.7 -0.925,0.7 h -11.425 q -0.55,0 -0.55,-0.425 0,-0.125 0.05,-0.275 l 0.675,-2.15 q 0.225,-0.725 0.95,-0.725 h 11.425 q 0.525,0 0.525,0.425 0,0.15 -0.05,0.3 z" />
          <path
             inkscape:connector-curvature="0"
             id="path5547"
             style="font-style:normal;font-variant:normal;font-weight:normal;font-stretch:normal;font-size:25px;font-family:genotype;-inkscape-font-specification:genotype;text-align:center;text-anchor:middle;fill:#000000;fill-opacity:1;stroke:none"
             d="m 377.73364,587.95266 h -17.15 q -0.725,0 -1.55,0.35 -1.625,0.7 -2.2,2.5 l -2.725,8.575 q -0.125,0.4 -0.125,0.95 0,1.9 2.1,1.9 h 11.425 q 0.375,0 0.775,-0.175 0.825,-0.35 1.1,-1.25 l 1.575,-5 q 0.225,-0.725 0.95,-0.725 h 5 q 0.375,0 0.775,-0.175 0.825,-0.35 1.1,-1.25 l 0.9,-2.85 q 0.125,-0.4 0.125,-0.95 0,-1.9 -2.075,-1.9 z m -4.45,5 q -0.225,0.7 -0.925,0.7 h -11.425 q -0.55,0 -0.55,-0.425 0,-0.125 0.05,-0.275 l 0.675,-2.15 q 0.225,-0.725 0.95,-0.725 h 11.425 q 0.525,0 0.525,0.425 0,0.15 -0.05,0.3 z" />
          <path
             inkscape:connector-curvature="0"
             id="path5549"
             style="font-style:normal;font-variant:normal;font-weight:normal;font-stretch:normal;font-size:25px;font-family:genotype;-inkscape-font-specification:genotype;text-align:center;text-anchor:middle;fill:#000000;fill-opacity:1;stroke:none"
             d="m 404.88208,599.37766 2.725,-8.575 q 0.175,-0.55 0.175,-1.025 0,-1.825 -2.15,-1.825 h -17.125 q -2.875,0 -3.775,2.85 l -5.175,16.425 q -0.05,0.15 -0.05,0.25 0,0.425 0.525,0.475 h 2.875 q 0.7,0 0.925,-0.725 l 1.35,-4.275 q 0.225,-0.725 0.95,-0.725 h 15 q 2.85,0 3.75,-2.85 z m -3.675,-6.425 q -0.225,0.7 -0.95,0.7 h -11.425 q -0.525,0 -0.525,-0.45 0,-0.1 0.05,-0.25 l 0.675,-2.15 q 0.225,-0.725 0.925,-0.725 h 11.45 q 0.525,0.05 0.525,0.475 0,0.1 -0.05,0.25 z" />
          <path
             inkscape:connector-curvature="0"
             id="path5551"
             style="font-style:normal;font-variant:normal;font-weight:normal;font-stretch:normal;font-size:25px;font-family:genotype;-inkscape-font-specification:genotype;text-align:center;text-anchor:middle;fill:#000000;fill-opacity:1;stroke:none"
             d="m 291.88247,612.95266 q -2.85,0 -3.75,2.85 l -2.725,8.575 q -0.125,0.4 -0.125,0.95 0,1.9 2.1,1.9 h 18.55 q 1.45,0 1.9,-1.425 l 1.8,-5.725 q 0.075,-0.25 0.075,-0.5 0,-0.925 -1.05,-0.925 h -16.425 q -0.55,0 -0.55,-0.425 0,-0.125 0.05,-0.275 l 0.675,-2.15 q 0.225,-0.725 0.95,-0.725 h 17.125 q 0.725,0 0.95,-0.7 l 0.225,-0.725 q 0.05,-0.15 0.05,-0.25 0,-0.45 -0.55,-0.45 z" />
          <path
             inkscape:connector-curvature="0"
             id="path5553"
             style="font-style:normal;font-variant:normal;font-weight:normal;font-stretch:normal;font-size:25px;font-family:genotype;-inkscape-font-specification:genotype;text-align:center;text-anchor:middle;fill:#000000;fill-opacity:1;stroke:none"
             d="m 313.14185,624.37766 q -0.125,0.4 -0.125,0.95 0,1.9 2.1,1.9 h 13.55 q 0.55,0 0.55,0.45 0,0.125 -0.05,0.275 l -1.35,4.275 q -0.05,0.15 -0.05,0.3 0,0.425 0.525,0.425 h 4.3 q 0.725,-0.1 0.925,-0.725 l 5.875,-18.575 q 0.05,-0.15 0.05,-0.25 0,-0.45 -0.55,-0.45 h -4.275 q -0.65,0 -0.95,0.7 l -1.35,4.3 q -0.225,0.7 -0.925,0.7 h -11.425 q -0.55,0 -0.55,-0.425 0,-0.125 0.05,-0.275 l 1.35,-4.3 q 0.05,-0.15 0.05,-0.25 0,-0.45 -0.525,-0.45 h -2.875 q -0.7,0 -0.925,0.7 z" />
          <path
             inkscape:connector-curvature="0"
             id="path5555"
             style="font-style:normal;font-variant:normal;font-weight:normal;font-stretch:normal;font-size:25px;font-family:genotype;-inkscape-font-specification:genotype;text-align:center;text-anchor:middle;fill:#000000;fill-opacity:1;stroke:none"
             d="m 364.25708,612.95266 h -15 q -0.55,-0.05 -0.55,-0.475 0,-0.1 0.05,-0.25 l 1.35,-4.275 q 0.05,-0.15 0.05,-0.3 0,-0.425 -0.525,-0.425 h -2.85 q -0.75,0.075 -0.95,0.725 l -5.2,16.425 q -0.125,0.4 -0.125,0.95 0,1.9 2.1,1.9 h 17.125 q 0.75,0 1.55,-0.35 1.675,-0.725 2.225,-2.5 l 2.7,-8.575 q 0.125,-0.4 0.125,-0.95 0,-1.9 -2.075,-1.9 z m -4.45,5 q -0.225,0.7 -0.925,0.7 h -11.425 q -0.55,0 -0.55,-0.425 0,-0.125 0.05,-0.275 l 0.675,-2.15 q 0.225,-0.725 0.95,-0.725 h 11.425 q 0.525,0 0.525,0.425 0,0.15 -0.05,0.3 z" />
          <path
             inkscape:connector-curvature="0"
             id="path5557"
             style="font-style:normal;font-variant:normal;font-weight:normal;font-stretch:normal;font-size:25px;font-family:genotype;-inkscape-font-specification:genotype;text-align:center;text-anchor:middle;fill:#000000;fill-opacity:1;stroke:none"
             d="m 391.40552,612.95266 h -17.15 q -0.725,0 -1.55,0.35 -1.625,0.7 -2.2,2.5 l -2.725,8.575 q -0.125,0.4 -0.125,0.95 0,1.9 2.1,1.9 h 11.425 q 0.375,0 0.775,-0.175 0.825,-0.35 1.1,-1.25 l 1.575,-5 q 0.225,-0.725 0.95,-0.725 h 5 q 0.375,0 0.775,-0.175 0.825,-0.35 1.1,-1.25 l 0.9,-2.85 q 0.125,-0.4 0.125,-0.95 0,-1.9 -2.075,-1.9 z m -4.45,5 q -0.225,0.7 -0.925,0.7 h -11.425 q -0.55,0 -0.55,-0.425 0,-0.125 0.05,-0.275 l 0.675,-2.15 q 0.225,-0.725 0.95,-0.725 h 11.425 q 0.525,0 0.525,0.425 0,0.15 -0.05,0.3 z" />
          <path
             inkscape:connector-curvature="0"
             id="path5559"
             style="font-style:normal;font-variant:normal;font-weight:normal;font-stretch:normal;font-size:25px;font-family:genotype;-inkscape-font-specification:genotype;text-align:center;text-anchor:middle;fill:#000000;fill-opacity:1;stroke:none"
             d="m 421.07896,615.80266 q 0.15,-0.475 0.15,-0.95 0,-1.9 -2.1,-1.9 h -17.15 q -2.85,0 -3.75,2.85 l -3.375,10.7 q -0.05,0.15 -0.05,0.275 0,0.45 0.525,0.45 h 2.875 q 0.7,0 0.925,-0.725 l 3.4,-10.7 q 0.225,-0.725 0.925,-0.725 h 11.425 q 0.55,0 0.55,0.45 0,0.125 -0.05,0.275 l -0.675,2.15 q -0.05,0.15 -0.05,0.25 0,0.45 0.525,0.45 h 4.3 q 0.7,0 0.925,-0.7 z" />
        </g>
        <g
           style="fill:none;stroke:#6a97ff;stroke-opacity:1"
           id="g5561"
           transform="matrix(1.9999992,0,0,1.9999992,-81.857642,-389.91904)">
          <circle
             style="display:inline;fill:none;stroke:#6a97ff;stroke-width:1.20000005;stroke-linecap:square;stroke-linejoin:miter;stroke-miterlimit:4;stroke-dasharray:none;stroke-opacity:1"
             id="circle5563"
             cx="150.97906"
             cy="315.55823"
             r="8.539402" />
          <circle
             cy="315.55823"
             cx="179.44373"
             id="circle5565"
             style="display:inline;fill:none;stroke:#6a97ff;stroke-width:1.20000005;stroke-linecap:square;stroke-linejoin:miter;stroke-miterlimit:4;stroke-dasharray:none;stroke-opacity:1"
             r="8.539402" />
          <circle
             cy="315.55823"
             cx="207.90845"
             id="circle5567"
             style="display:inline;fill:none;stroke:#6a97ff;stroke-width:1.20000005;stroke-linecap:square;stroke-linejoin:miter;stroke-miterlimit:4;stroke-dasharray:none;stroke-opacity:1"
             r="8.539402" />
          <circle
             style="display:inline;fill:none;stroke:#6a97ff;stroke-width:1.20000005;stroke-linecap:square;stroke-linejoin:miter;stroke-miterlimit:4;stroke-dasharray:none;stroke-opacity:1"
             id="circle5569"
             cx="236.37311"
             cy="315.55823"
             r="8.539402" />
          <circle
             r="8.539402"
             cy="344.43689"
             cx="164.97906"
             id="circle5571"
             style="display:inline;fill:none;stroke:#6a97ff;stroke-width:1.20000005;stroke-linecap:square;stroke-linejoin:miter;stroke-miterlimit:4;stroke-dasharray:none;stroke-opacity:1" />
          <circle
             r="8.539402"
             style="display:inline;fill:none;stroke:#6a97ff;stroke-width:1.20000005;stroke-linecap:square;stroke-linejoin:miter;stroke-miterlimit:4;stroke-dasharray:none;stroke-opacity:1"
             id="circle5573"
             cx="193.44373"
             cy="344.43689" />
          <circle
             r="8.539402"
             style="display:inline;fill:none;stroke:#6a97ff;stroke-width:1.20000005;stroke-linecap:square;stroke-linejoin:miter;stroke-miterlimit:4;stroke-dasharray:none;stroke-opacity:1"
             id="circle5575"
             cx="221.90845"
             cy="344.43689" />
        </g>
      </g>
    </g>
  </g>
</svg>
